<svg width="24" height="24" viewBox="0 0 24 24" fill="none" xmlns="http://www.w3.org/2000/svg">
<path fill-rule="evenodd" clip-rule="evenodd" d="M12 24C18.6274 24 24 18.6274 24 12C24 5.37259 18.6274 0 12 0C5.37259 0 0 5.37259 0 12C0 18.6274 5.37259 24 12 24ZM15.325 16.5217L19 20V5.73914C19 5.27788 18.8156 4.83553 18.4874 4.50938C18.1592 4.18323 17.7141 4 17.25 4H6.75C6.28586 4 5.84076 4.18323 5.51257 4.50938C5.18439 4.83553 5 5.27788 5 5.73914V16.1739C5 16.6352 5.18439 17.0775 5.51257 17.4037C5.84076 17.7298 6.28586 17.913 6.75 17.913H15.766L15.325 16.5217ZM8.80801 8.83478C8.80801 8.83478 10.124 8.03479 12 8.03479C13.876 8.03479 15.192 8.83478 15.192 8.83478C14.471 8.19478 13.211 7.82608 13.211 7.82608L13.33 7.70782C14.513 7.7287 15.584 8.5426 15.584 8.5426C16.788 11.04 16.711 13.1965 16.711 13.1965C15.731 14.4557 14.275 14.3652 14.275 14.3652L13.778 13.7391C14.653 13.5513 15.206 12.7791 15.206 12.7791C15.206 12.7791 13.89 13.6696 12 13.6696C10.11 13.6696 8.79401 12.7791 8.79401 12.7791C8.79401 12.7791 9.34698 13.5513 10.222 13.7391L9.72501 14.3652C9.72501 14.3652 8.26901 14.4557 7.289 13.1965C7.289 13.1965 7.21201 11.04 8.41599 8.5426C8.41599 8.5426 9.487 7.7287 10.67 7.70782L10.789 7.82608C10.789 7.82608 9.52899 8.19478 8.80801 8.83478ZM11.37 11.5548C11.377 11.0678 11.006 10.6713 10.551 10.6713C10.096 10.6713 9.73901 11.0678 9.73901 11.5548C9.73901 12.0348 10.103 12.4383 10.551 12.4383C11.006 12.4383 11.37 12.0348 11.37 11.5548ZM14.289 11.5548C14.289 11.0678 13.925 10.6713 13.47 10.6713C13.015 10.6713 12.658 11.0678 12.658 11.5548C12.658 12.0348 13.022 12.4383 13.47 12.4383C13.925 12.4383 14.289 12.0348 14.289 11.5548Z" fill="#808098"/>
</svg>
