<?xml version="1.0" encoding="utf-8"?>
<!-- Generator: Adobe Illustrator 21.0.0, SVG Export Plug-In . SVG Version: 6.00 Build 0)  -->
<svg version="1.1" id="facebook" xmlns="http://www.w3.org/2000/svg" xmlns:xlink="http://www.w3.org/1999/xlink" x="0px" y="0px"
	 viewBox="0 0 20 20" style="enable-background:new 0 0 20 20;" xml:space="preserve">
<style type="text/css">
	.st0{fill:#C9C9C9;}
</style>
<g>
	<path class="st0" d="M10,0.1C4.5,0.1,0,4.5,0,10c0,4.9,3.6,9,8.3,9.8v-7.7H5.9V9.3h2.4V7.3c0-2.4,1.5-3.7,3.6-3.7
		c1,0,1.9,0.1,2.1,0.1v2.5l-1.5,0c-1.2,0-1.4,0.5-1.4,1.4v1.8H14l-0.4,2.8h-2.4v7.8c4.9-0.6,8.8-4.8,8.8-9.9C20,4.5,15.5,0.1,10,0.1
		z"/>
</g>
</svg>
