<svg width="24" height="24" viewBox="0 0 24 24" fill="none" xmlns="http://www.w3.org/2000/svg">
<path fill-rule="evenodd" clip-rule="evenodd" d="M12 24C18.6274 24 24 18.6274 24 12C24 5.37259 18.6274 0 12 0C5.37259 0 0 5.37259 0 12C0 18.6274 5.37259 24 12 24ZM18.3199 11.0107C19.2065 10.9016 19.9691 11.536 19.9977 12.438C20.0263 13.003 19.788 13.4689 19.3304 13.7861C18.8347 14.0933 18.3199 14.1033 17.8242 13.7861C17.7098 13.7167 17.624 13.7266 17.5191 13.7861C17.0854 14.0289 16.6492 14.2742 16.2131 14.5196C15.7769 14.7649 15.3408 15.0102 14.9071 15.2531C14.2313 15.639 13.5555 16.0151 12.8796 16.3912L12.8765 16.3929C12.7335 16.4722 12.6477 16.5515 12.6287 16.7399C12.5334 17.4436 11.9518 17.969 11.2464 17.9987C10.5981 18.0284 9.97849 17.5428 9.81644 16.8786C9.77829 16.7399 9.71158 16.6705 9.59717 16.611C8.13861 15.8379 6.68005 15.0647 5.23105 14.2718C4.68765 13.9645 4.37308 13.459 4.17288 12.8642C3.97269 12.2398 3.92502 11.6054 4.14429 10.971C4.27774 10.5845 4.5256 10.297 4.87833 10.1087C7.46176 8.77055 10.0357 7.44232 12.6287 6.11411C12.9433 5.95551 13.2769 5.96542 13.5915 6.12402C13.9207 6.28662 14.2517 6.45291 14.5838 6.61971C15.0208 6.83929 15.4597 7.05975 15.8985 7.27382C16.4037 7.52162 16.909 7.76694 17.4142 8.01227C17.9195 8.2576 18.4247 8.50291 18.93 8.75072C18.958 8.76457 18.9869 8.77785 19.016 8.7912C19.1948 8.87331 19.3794 8.95804 19.3876 9.19676C19.3956 9.4288 19.2236 9.50842 19.0556 9.58621C19.0226 9.60147 18.9898 9.61665 18.9586 9.6329C16.4637 10.9696 13.9783 12.3161 11.4929 13.6627L11.4847 13.6671C11.1606 13.8455 10.8651 13.8654 10.5219 13.677C8.94037 12.7954 7.34933 11.9336 5.7583 11.0717L5.75537 11.0701C5.24057 10.7926 4.92599 10.971 4.85925 11.5757C4.85397 11.6307 4.85162 11.6826 4.84894 11.7417C4.8468 11.789 4.84445 11.841 4.84021 11.9028C4.88785 12.6363 5.15479 13.2508 5.89835 13.6374C6.94235 14.1761 7.96756 14.7475 8.99429 15.3197C9.23322 15.4529 9.47223 15.5861 9.71158 15.7189C9.86411 15.8081 9.9213 15.7982 10.0166 15.6396C10.5123 14.8268 11.6754 14.7475 12.2855 15.491C12.3618 15.5901 12.4094 15.6198 12.5334 15.5504C14.0205 14.7178 15.5267 13.8852 17.0234 13.0625C17.1473 12.9931 17.1759 12.9336 17.1473 12.7949C16.9948 11.9523 17.5477 11.1098 18.3199 11.0107ZM10.7411 16.4822C10.7316 16.7498 10.9413 16.9678 11.1987 16.9678C11.4561 16.9678 11.6754 16.7399 11.6754 16.4921C11.6754 16.2244 11.4656 16.0163 11.1987 16.0163C10.9509 16.0163 10.7507 16.2244 10.7411 16.4822ZM18.1102 12.4876C18.1006 12.7651 18.3008 12.9832 18.5582 12.9832C18.8061 12.9832 19.0158 12.7552 19.0349 12.4876C19.0349 12.2398 18.8251 12.0217 18.5868 12.0118C18.3294 12.0019 18.1102 12.22 18.1102 12.4876Z" fill="#808098"/>
</svg>
