<svg width="24" height="25" viewBox="0 0 24 25" fill="none" xmlns="http://www.w3.org/2000/svg">
<path d="M12.0013 0.329469C5.37057 0.326722 0 5.8406 0 12.6462C0 18.0279 3.35963 22.6026 8.03844 24.2826C8.66854 24.4451 8.572 23.9852 8.572 23.6712V21.5367C4.93354 21.9746 4.78606 19.5014 4.54206 19.0882C4.0487 18.2234 2.88236 18.0031 3.23092 17.59C4.05945 17.152 4.90405 17.7001 5.8827 19.1846C6.59054 20.2615 7.97139 20.0797 8.67121 19.9007C8.82404 19.2535 9.15116 18.6751 9.60161 18.2262C5.83174 17.5321 4.26053 15.169 4.26053 12.3597C4.26053 10.9964 4.69759 9.74328 5.55558 8.73249C5.00861 7.06621 5.60652 5.63954 5.68696 5.42747C7.24478 5.28425 8.86427 6.57321 8.99028 6.6751C9.8751 6.42999 10.8859 6.30058 12.0174 6.30058C13.1543 6.30058 14.1678 6.43553 15.0607 6.68339C15.3636 6.44655 16.8652 5.33936 18.313 5.47432C18.3908 5.68639 18.9753 7.07999 18.4605 8.72425C19.3293 9.73779 19.7717 11.002 19.7717 12.368C19.7717 15.1828 18.1897 17.5487 14.4091 18.2317C14.7329 18.5588 14.99 18.9489 15.1654 19.3792C15.3408 19.8096 15.431 20.2715 15.4307 20.738V23.8365C15.4521 24.0843 15.4307 24.3295 15.8329 24.3295C20.5814 22.6852 24 18.0775 24 12.649C24 5.84062 18.6268 0.329493 12.0013 0.329493V0.329469Z" fill="#808098"/>
</svg>
