<svg width="24" height="24" viewBox="0 0 24 24" fill="none" xmlns="http://www.w3.org/2000/svg">
<path fill-rule="evenodd" clip-rule="evenodd" d="M12 24C18.6274 24 24 18.6274 24 12C24 5.37259 18.6274 0 12 0C5.37259 0 0 5.37259 0 12C0 18.6274 5.37259 24 12 24ZM4.00235 11.5507C3.91635 14.4516 6.19171 16.5002 8.71729 16.5002C11.2898 16.5081 13.4322 14.3969 13.4401 11.8009C13.4401 9.00169 11.235 7 8.73294 7C6.16827 7 4.08057 9.03297 4.00235 11.5507ZM17.7875 15.1397C18.4286 14.045 18.6085 12.8409 18.6163 11.7853C18.5616 10.3935 18.3505 9.4552 17.9439 8.64201C17.7015 8.16504 17.4044 7.73499 16.9274 7.46132C16.4739 7.20329 16.0282 7.20329 15.5747 7.46132C15.0352 7.77409 14.7068 8.25888 14.4722 8.81403C13.6824 10.6672 13.7059 12.5516 14.3627 14.4282C14.5582 14.9833 14.8553 15.4759 15.3167 15.8591C15.8562 16.3048 16.4739 16.3439 17.0447 15.9607C17.3574 15.7496 17.5998 15.4603 17.7875 15.1397ZM20.7275 11.9495C20.7197 12.8174 20.6571 13.873 20.4069 14.9051C20.3522 15.1475 20.274 15.3821 20.1332 15.5854C19.9768 15.8122 19.8127 15.8122 19.6641 15.5776C19.4373 15.2414 19.3591 14.8426 19.2966 14.4595C18.9916 12.5985 18.9838 10.7375 19.3279 8.88441C19.3904 8.56383 19.4686 8.25107 19.6328 7.96175C19.8048 7.66463 20.0159 7.6568 20.1801 7.96175C20.4128 8.39613 20.4916 8.87668 20.5692 9.35001L20.5693 9.35028L20.5711 9.36137C20.6806 10.1667 20.7197 10.9643 20.7275 11.9495Z" fill="#808098"/>
</svg>
