<svg width="32" height="32" viewBox="0 0 32 32" fill="none" xmlns="http://www.w3.org/2000/svg">
<path fill-rule="evenodd" clip-rule="evenodd" d="M16 0C7.16344 0 0 7.16344 0 16C0 24.8366 7.16344 32 16 32C24.8366 32 32 24.8366 32 16C32 7.16344 24.8366 0 16 0ZM13.9791 18.557L13.6891 23.032C14.1137 23.032 14.3105 22.831 14.5487 22.5877L16.6097 20.5459L20.8974 23.7831C21.6845 24.2275 22.2541 23.9947 22.4509 23.032L25.268 9.48008C25.558 8.29521 24.833 7.75567 24.0769 8.10479L7.53713 14.6216C6.40823 15.087 6.41859 15.7324 7.32999 15.9969L11.5763 17.3722L21.3945 11.0352C21.8606 10.7496 22.2852 10.9083 21.9331 11.2362L13.9791 18.557Z" fill="#808098"/>
</svg>
