<svg width="24" height="24" viewBox="0 0 24 24" fill="none" xmlns="http://www.w3.org/2000/svg">
<path fill-rule="evenodd" clip-rule="evenodd" d="M12 24C18.6274 24 24 18.6274 24 12C24 5.37258 18.6274 0 12 0C5.37258 0 0 5.37258 0 12C0 18.6274 5.37258 24 12 24ZM19.0323 7.64805C19.0333 7.64651 19.0344 7.64497 19.0354 7.64342L19.0377 7.64571C19.0359 7.64649 19.0341 7.64727 19.0323 7.64805ZM17.5886 9.13485C18.1532 8.72527 18.6344 8.22967 19.0323 7.64805C18.4809 7.88516 17.9292 8.03333 17.3771 8.09257C18.0019 7.71695 18.4244 7.18704 18.6446 6.50285C18.0731 6.8419 17.4629 7.0739 16.8137 7.19885C16.2423 6.59161 15.5398 6.28799 14.7063 6.28799C13.9086 6.28799 13.2286 6.56914 12.6663 7.13142C12.104 7.69371 11.8229 8.37371 11.8229 9.17142C11.8229 9.38552 11.8465 9.60571 11.8937 9.832C10.7158 9.77257 9.61028 9.47657 8.57714 8.944C7.544 8.41142 6.66743 7.70171 5.94743 6.81485C5.68533 7.26057 5.55428 7.74552 5.55428 8.26971C5.55505 8.76419 5.67124 9.22247 5.90285 9.64457C6.13447 10.0667 6.44685 10.4088 6.84 10.6709C6.37524 10.6533 5.94057 10.5314 5.536 10.3051V10.3406C5.536 11.0369 5.75466 11.6484 6.192 12.1749C6.62933 12.7013 7.18133 13.0331 7.848 13.1703C7.59809 13.2358 7.34514 13.2686 7.08914 13.2686C6.92228 13.2686 6.74057 13.2537 6.544 13.224C6.72838 13.8015 7.06781 14.2762 7.56228 14.648C8.05676 15.0198 8.61638 15.2118 9.24114 15.224C8.19352 16.0453 7 16.456 5.66057 16.456C5.40457 16.456 5.17257 16.4442 4.96457 16.4206C6.304 17.2838 7.78019 17.7154 9.39314 17.7154C10.4164 17.7154 11.3775 17.5531 12.2766 17.2286C13.1756 16.904 13.9436 16.4693 14.5806 15.9246C15.2175 15.3798 15.7665 14.7531 16.2274 14.0446C16.6884 13.336 17.032 12.5966 17.2583 11.8263C17.4846 11.056 17.5977 10.2838 17.5977 9.50971C17.5977 9.34285 17.5947 9.2179 17.5886 9.13485Z" fill="#808098"/>
</svg>
