<svg width="141" height="33" viewBox="0 0 141 33" fill="none" xmlns="http://www.w3.org/2000/svg">
<g clip-path="url(#clip0)">
<path d="M60.4 22.2996H61.6C61.9 22.2996 62.1 22.0996 62.1 21.7996C62.1 21.4996 61.9 21.2996 61.6 21.2996H59.8L56.3 15.1996C56.1 14.8996 55.6 14.8996 55.4 15.1996L52 21.2996H50.2C49.9 21.2996 49.7 21.4996 49.7 21.7996C49.7 22.0996 49.9 22.2996 50.2 22.2996H51.4L49.5 25.5996C49.4 25.7996 49.4 25.8996 49.5 26.0996C49.6 26.2996 49.8 26.2996 49.9 26.2996H61.9C62.1 26.2996 62.2 26.1996 62.3 26.0996C62.4 25.9996 62.4 25.7996 62.3 25.5996L60.4 22.2996ZM55.9 16.3996L58.7 21.2996H53.1L55.9 16.3996ZM50.8 25.2996L52.6 22.1996H59.4L61.2 25.2996H50.8Z" fill="white"/>
<path d="M87.4 22.2996H88.6C88.9 22.2996 89.1 22.0996 89.1 21.7996C89.1 21.4996 88.9 21.2996 88.6 21.2996H86.8L83.3 15.1996C83.1 14.8996 82.6 14.8996 82.4 15.1996L78.9 21.2996H77.1C76.8 21.2996 76.6 21.4996 76.6 21.7996C76.6 22.0996 76.8 22.2996 77.1 22.2996H78.3L76.4 25.5996C76.3 25.7996 76.3 25.8996 76.4 26.0996C76.5 26.2996 76.7 26.2996 76.8 26.2996H88.8C89 26.2996 89.1 26.1996 89.2 26.0996C89.3 25.9996 89.3 25.7996 89.2 25.5996L87.4 22.2996ZM82.9 16.3996L85.7 21.2996H80.1L82.9 16.3996ZM77.7 25.2996L79.5 22.1996H86.3L88.1 25.2996H77.7Z" fill="white"/>
<path d="M74.1 23.3C73.8 23.3 73.6 23.5 73.6 23.8V25.4H66V16H67.2C67.5 16 67.7 15.8 67.7 15.5C67.7 15.2 67.5 15 67.2 15H63.8C63.5 15 63.3 15.2 63.3 15.5C63.3 15.8 63.5 16 63.8 16H65V25.9C65 26.2 65.2 26.4 65.5 26.4H74.1C74.4 26.4 74.6 26.2 74.6 25.9V23.8C74.6 23.5 74.4 23.3 74.1 23.3Z" fill="white"/>
<path d="M98.4 14.9004H92C91.7 14.9004 91.5 15.1004 91.5 15.4004C91.5 15.7004 91.7 15.9004 92 15.9004H93.1V25.3004H92C91.7 25.3004 91.5 25.5004 91.5 25.8004C91.5 26.1004 91.7 26.3004 92 26.3004H98.5C101.6 26.3004 104.2 23.7004 104.2 20.6004C104.2 17.5004 101.6 14.9004 98.4 14.9004ZM98.4 25.3004H94V15.9004H98.4C101 15.9004 103.1 18.0004 103.1 20.6004C103.1 23.2004 101 25.3004 98.4 25.3004Z" fill="white"/>
<path d="M123.5 15.9004C123.8 15.9004 124 15.7004 124 15.4004C124 15.1004 123.8 14.9004 123.5 14.9004H120C119.7 14.9004 119.5 15.1004 119.5 15.4004C119.5 15.7004 119.7 15.9004 120 15.9004H121.2V25.3004H120C119.7 25.3004 119.5 25.5004 119.5 25.8004C119.5 26.1004 119.7 26.3004 120 26.3004H123.5C123.8 26.3004 124 26.1004 124 25.8004C124 25.5004 123.8 25.3004 123.5 25.3004H122.2V15.9004H123.5Z" fill="white"/>
<path d="M112.3 14.9004H105.8C105.5 14.9004 105.3 15.1004 105.3 15.4004C105.3 15.7004 105.5 15.9004 105.8 15.9004H106.9V25.3004H105.8C105.5 25.3004 105.3 25.5004 105.3 25.8004C105.3 26.1004 105.5 26.3004 105.8 26.3004H112.3C115.4 26.3004 118 23.7004 118 20.6004C118 17.5004 115.4 14.9004 112.3 14.9004ZM112.3 25.3004H107.9V15.9004H112.3C114.9 15.9004 117 18.0004 117 20.6004C117 23.2004 114.9 25.3004 112.3 25.3004Z" fill="white"/>
<path d="M140.5 25.3004H139.2V15.9004H140.5C140.8 15.9004 141 15.7004 141 15.4004C141 15.1004 140.8 14.9004 140.5 14.9004H137C136.7 14.9004 136.5 15.1004 136.5 15.4004C136.5 15.7004 136.7 15.9004 137 15.9004H138.2V24.5004L129.7 15.1004L129.6 15.0004C129.5 15.0004 129.5 15.0004 129.4 15.0004H127.7C127.4 15.0004 127.2 15.2004 127.2 15.5004C127.2 15.8004 127.4 16.0004 127.7 16.0004H128.9V25.4004H127.7C127.4 25.4004 127.2 25.6004 127.2 25.9004C127.2 26.2004 127.4 26.4004 127.7 26.4004H131.2C131.5 26.4004 131.7 26.2004 131.7 25.9004C131.7 25.6004 131.5 25.4004 131.2 25.4004H129.9V16.8004L138.4 26.2004L138.5 26.3004C138.6 26.3004 138.6 26.3004 138.7 26.3004H140.5C140.8 26.3004 141 26.1004 141 25.8004C141 25.5004 140.8 25.3004 140.5 25.3004Z" fill="white"/>
<path d="M20.7 11.9008C20.4 11.9008 20.2 11.7008 20.2 11.4008V3.80078C20.2 3.50078 20.4 3.30078 20.7 3.30078C21 3.30078 21.2 3.50078 21.2 3.80078V11.4008C21.2 11.7008 21 11.9008 20.7 11.9008Z" fill="white"/>
<path d="M18.2 12.6C18 12.6 17.9 12.5 17.8 12.4L12.4 3.00004C12.3 2.80004 12.3 2.50004 12.6 2.30004C12.8 2.20004 13.1 2.20004 13.3 2.50004L18.7 11.9C18.8 12.1 18.8 12.4 18.5 12.6C18.4 12.5 18.3 12.6 18.2 12.6Z" fill="white"/>
<path d="M16.4 14.4008C16.3 14.4008 16.2 14.4008 16.2 14.3008L9.60001 10.5008C9.40001 10.4008 9.30001 10.1008 9.40001 9.80082C9.50001 9.50082 9.80001 9.50082 10.1 9.60082L16.7 13.4008C16.9 13.5008 17 13.8008 16.9 14.1008C16.8 14.3008 16.6 14.4008 16.4 14.4008Z" fill="white"/>
<path d="M15.8 16.8008H4.89996C4.59996 16.8008 4.39996 16.6008 4.39996 16.3008C4.39996 16.0008 4.59996 15.8008 4.89996 15.8008H15.8C16.1 15.8008 16.3 16.0008 16.3 16.3008C16.3 16.6008 16.1 16.8008 15.8 16.8008Z" fill="white"/>
<path d="M7.49996 9.29961C7.83133 9.29961 8.09996 9.03098 8.09996 8.69961C8.09996 8.36824 7.83133 8.09961 7.49996 8.09961C7.16859 8.09961 6.89996 8.36824 6.89996 8.69961C6.89996 9.03098 7.16859 9.29961 7.49996 9.29961Z" fill="#EA8D27"/>
<path d="M22.9 12.5994C22.8 12.5994 22.7 12.5994 22.7 12.4994C22.5 12.3994 22.4 12.0994 22.5 11.7994L27.9 2.39939C28 2.19939 28.3 2.09939 28.6 2.19939C28.8 2.29939 28.9 2.59939 28.8 2.89939L23.4 12.2994C23.2 12.4994 23.1 12.5994 22.9 12.5994Z" fill="white"/>
<path d="M24.7 14.4008C24.5 14.4008 24.4 14.3008 24.3 14.2008C24.2 14.0008 24.2 13.7008 24.5 13.5008L31 9.60082C31.2 9.50082 31.5 9.50082 31.7 9.80082C31.8 10.0008 31.8 10.3008 31.5 10.5008L24.9 14.3008C24.9 14.4008 24.8 14.4008 24.7 14.4008Z" fill="white"/>
<path d="M36.3 16.8008H25.3C25 16.8008 24.8 16.6008 24.8 16.3008C24.8 16.0008 25 15.8008 25.3 15.8008H36.2C36.5 15.8008 36.7 16.0008 36.7 16.3008C36.7 16.6008 36.5 16.8008 36.3 16.8008Z" fill="white"/>
<path d="M33.6 9.29961C33.9314 9.29961 34.2 9.03098 34.2 8.69961C34.2 8.36824 33.9314 8.09961 33.6 8.09961C33.2686 8.09961 33 8.36824 33 8.69961C33 9.03098 33.2686 9.29961 33.6 9.29961Z" fill="#EA8D27"/>
<path d="M20.7 1.2C21.0313 1.2 21.3 0.931371 21.3 0.6C21.3 0.268629 21.0313 0 20.7 0C20.3686 0 20.1 0.268629 20.1 0.6C20.1 0.931371 20.3686 1.2 20.7 1.2Z" fill="#EA8D27"/>
<path d="M20.3 19.4004C20.4 19.6004 20.6 19.7004 20.7 19.7004C20.9 19.7004 21.1 19.6004 21.1 19.4004L22.5 16.5004C22.6 16.4004 22.6 16.2004 22.5 16.1004L21.1 13.2004C21 13.0004 20.8 12.9004 20.7 12.9004C20.5 12.9004 20.3 13.0004 20.3 13.2004L18.9 16.1004C18.8 16.2004 18.8 16.4004 18.9 16.5004L20.3 19.4004ZM20.7 14.6004L21.5 16.3004L20.7 18.0004L19.8 16.3004L20.7 14.6004Z" fill="#EA8D27"/>
<path d="M24.2 31.7L21 29.7C20.8 29.6 20.7 29.6 20.5 29.7L17.2 31.6C17 31.7 16.9 31.9 17 32.2C17.1 32.4 17.3 32.6 17.5 32.6H24C24.2 32.6 24.4 32.4 24.5 32.2C24.5 32 24.4 31.8 24.2 31.7ZM19.3 31.6L20.7 30.8L22.1 31.6H19.3Z" fill="#EA8D27"/>
<path d="M35.9 20.7996H32.9H8.59998C5.19998 20.7996 2.39998 19.5996 0.899984 17.5996C0.699984 17.3996 0.399984 17.2996 0.199984 17.4996C-1.62125e-05 17.6996 -0.100016 17.9996 0.0999838 18.1996C1.79998 20.3996 4.79998 21.6996 8.39998 21.7996L20.4 28.7996C20.5 28.7996 20.6 28.8996 20.7 28.8996C20.8 28.8996 20.9 28.8996 21 28.7996L33 21.7996H35.9C37.3 21.7996 38.4 22.8996 38.4 24.2996C38.4 25.6996 37.3 26.7996 35.9 26.7996C34.9 26.7996 34 26.1996 33.6 25.2996C34.1 25.1996 34.4 24.7996 34.4 24.2996C34.4 23.6996 33.9 23.2996 33.4 23.2996C32.8 23.2996 32.4 23.7996 32.4 24.2996C32.4 26.1996 34 27.7996 35.9 27.7996C37.8 27.7996 39.4 26.1996 39.4 24.2996C39.4 22.3996 37.8 20.7996 35.9 20.7996ZM20.7 27.7996L14.5 24.1996H27L20.7 27.7996ZM28.7 23.0996H12.7L10.4 21.6996H31L28.7 23.0996Z" fill="#EA8D27"/>
</g>
<defs>
<clipPath id="clip0">
<rect width="141" height="32.6" fill="white"/>
</clipPath>
</defs>
</svg>
